<svg width="36" height="36" viewBox="0 0 36 36" fill="none" xmlns="http://www.w3.org/2000/svg">
<g clip-path="url(#clip0_179_298)">
<g clip-path="url(#clip1_179_298)">
<path d="M32.8731 27.5311L32.8338 27.5108L23.5531 22.3363C23.3955 22.2493 23.2566 22.1321 23.1444 21.9913C23.0322 21.8506 22.9488 21.6891 22.8992 21.5162C22.8496 21.3432 22.8346 21.1622 22.8551 20.9835C22.8757 20.8048 22.9313 20.6319 23.0189 20.4748C23.1041 20.3156 23.2203 20.1751 23.3609 20.0617C23.5014 19.9484 23.6633 19.8643 23.837 19.8147C24.0106 19.765 24.1925 19.7508 24.3719 19.7727C24.5513 19.7947 24.7244 19.8524 24.8811 19.9425L34.1617 25.117C34.4814 25.2883 34.72 25.5794 34.8251 25.9264C34.9301 26.2733 34.893 26.6476 34.7218 26.967C34.5507 27.2863 34.2596 27.5245 33.9125 27.6292C33.5655 27.7339 33.1909 27.6965 32.8712 27.5252L32.8731 27.5311Z" fill="#FFB340"/>
<path d="M11.2807 15.491L11.2413 15.4707L1.96068 10.2962C1.80385 10.2086 1.66581 10.0909 1.55443 9.95001C1.44306 9.80907 1.36055 9.64758 1.31158 9.47482C1.26262 9.30206 1.24815 9.12142 1.26905 8.94314C1.28995 8.76486 1.3458 8.59245 1.43338 8.43579C1.52096 8.27913 1.63855 8.14129 1.77948 8.03011C1.92041 7.91892 2.0819 7.83657 2.25472 7.78778C2.42754 7.73898 2.60831 7.72471 2.78672 7.74575C2.96512 7.76678 3.13766 7.8227 3.29449 7.91037L12.5751 13.0849C12.7333 13.1699 12.8731 13.2853 12.9867 13.4243C13.1003 13.5634 13.1854 13.7234 13.2372 13.8953C13.2889 14.0672 13.3062 14.2475 13.2882 14.426C13.2702 14.6046 13.2172 14.7778 13.1322 14.9358C13.0472 15.0938 12.9319 15.2334 12.7929 15.3468C12.6538 15.4602 12.4938 15.5452 12.3218 15.5967C12.1499 15.6483 11.9694 15.6655 11.7908 15.6473C11.6122 15.6292 11.4388 15.576 11.2807 15.491Z" fill="#FFB340"/>
<path d="M20.875 12.7719L20.8396 12.7537C20.5221 12.5771 20.2876 12.2819 20.1874 11.9329C20.0873 11.584 20.1297 11.2096 20.3054 10.8921L25.4752 1.62142C25.5581 1.45958 25.6734 1.31656 25.814 1.20122C25.9547 1.08587 26.1176 1.00067 26.2926 0.950935C26.4676 0.9012 26.651 0.888003 26.8314 0.912116C27.0118 0.93623 27.1854 0.997147 27.3413 1.09112C27.4989 1.17811 27.6378 1.29536 27.75 1.43611C27.8622 1.57686 27.9456 1.73832 27.9952 1.91128C28.0448 2.08424 28.0598 2.26529 28.0393 2.44399C28.0187 2.62269 27.9631 2.79557 27.8755 2.95266L22.7057 12.2233C22.533 12.5358 22.2448 12.7681 21.9026 12.8707C21.5604 12.9732 21.1915 12.9378 20.875 12.7719Z" fill="#FFB340"/>
<path d="M8.84585 34.3411L8.80652 34.3208C8.64889 34.2338 8.50999 34.1166 8.39777 33.9758C8.28555 33.8351 8.20221 33.6736 8.15258 33.5006C8.10294 33.3277 8.08798 33.1466 8.10852 32.9679C8.12906 32.7892 8.18472 32.6164 8.27231 32.4593L13.4421 23.1886C13.5249 23.0271 13.64 22.8844 13.7802 22.7692C13.9204 22.6541 14.0829 22.5688 14.2574 22.519C14.432 22.469 14.615 22.4555 14.795 22.4791C14.9751 22.5028 15.1484 22.563 15.3043 22.6563C15.462 22.7433 15.6009 22.8605 15.7131 23.0012C15.8253 23.142 15.9086 23.3035 15.9582 23.4765C16.0079 23.6494 16.0229 23.8304 16.0023 24.0091C15.9818 24.1878 15.9261 24.3607 15.8385 24.5178L10.6687 33.7885C10.4959 34.0988 10.2093 34.3298 9.86929 34.4329C9.52925 34.5359 9.16232 34.5031 8.84585 34.3411Z" fill="#FFB340"/>
</g>
</g>
<defs>
<clipPath id="clip0_179_298">
<rect width="35" height="35" fill="white" transform="translate(0.44043 0.0800781)"/>
</clipPath>
<clipPath id="clip1_179_298">
<rect width="35" height="35" fill="white" transform="translate(0.44043 0.0800781)"/>
</clipPath>
</defs>
</svg>
