<svg width="130" height="86" viewBox="0 0 130 86" fill="none" xmlns="http://www.w3.org/2000/svg">
<mask id="mask0_39_2962" style="mask-type:alpha" maskUnits="userSpaceOnUse" x="0" y="0" width="130" height="86">
<g clip-path="url(#clip0_39_2962)">
<g clip-path="url(#clip1_39_2962)">
<path d="M26.9275 16.2479L7.98024 23.9628C2.65583 26.1307 -0.344882 31.8072 0.86225 37.4279L6.28313 62.6687C7.45612 68.1306 12.2841 72.0317 17.8705 72.0317H42.3303H94.5701C95.7699 72.0317 96.9627 71.8496 98.1074 71.4914L121.525 64.1673C126.472 62.6203 129.84 58.0387 129.84 52.856V40.4917C129.84 37.7971 128.922 35.1829 127.236 33.0802L118.109 21.6917C116.144 19.2393 113.286 17.6679 110.162 17.3231L85.4005 14.5899C82.9179 14.3158 80.4117 14.8333 78.2408 16.0683L63.4112 24.5036C59.8984 26.5019 55.6094 26.5723 52.0328 24.6904L36.9155 16.7361C33.8212 15.108 30.1659 14.9293 26.9275 16.2479Z" fill="#F8BC24"/>
</g>
</g>
</mask>
<g mask="url(#mask0_39_2962)">
<rect x="0.169922" y="0.599976" width="129.67" height="85" fill="#F05A2A"/>
</g>
<defs>
<clipPath id="clip0_39_2962">
<rect width="129.67" height="85" fill="white" transform="translate(0.169922 0.599976)"/>
</clipPath>
<clipPath id="clip1_39_2962">
<rect width="129.67" height="57.8635" fill="white" transform="translate(0.169922 14.1682)"/>
</clipPath>
</defs>
</svg>
